<svg xmlns="http://www.w3.org/2000/svg" width="1200" height="800" viewBox="0 0 1200 800">
  <defs>
    <pattern id="gridPattern" width="40" height="40" patternUnits="userSpaceOnUse">
      <path d="M 40 0 L 0 0 0 40" fill="none" stroke="#3481ed" stroke-width="0.5" opacity="0.2"/>
    </pattern>
    <linearGradient id="grad1" x1="0%" y1="0%" x2="100%" y2="100%">
      <stop offset="0%" stop-color="#3481ed" stop-opacity="0.1"/>
      <stop offset="100%" stop-color="#00ff7b" stop-opacity="0.1"/>
    </linearGradient>
    <filter id="glow" x="-50%" y="-50%" width="200%" height="200%">
      <feGaussianBlur stdDeviation="10" result="blur" />
      <feComposite in="SourceGraphic" in2="blur" operator="over" />
    </filter>
  </defs>
  
  <!-- Background -->
  <rect width="1200" height="800" fill="#121b2e"/>
  
  <!-- Grid Pattern -->
  <rect width="1200" height="800" fill="url(#gridPattern)"/>
  
  <!-- Gradient Overlay -->
  <rect width="1200" height="800" fill="url(#grad1)"/>
  
  <!-- Abstract Elements -->
  <circle cx="200" cy="200" r="100" fill="none" stroke="#3481ed" stroke-width="1" opacity="0.3"/>
  <circle cx="1000" cy="600" r="150" fill="none" stroke="#00ff7b" stroke-width="1" opacity="0.3"/>
  
  <path d="M-100,400 Q300,100 600,400 T1300,400" fill="none" stroke="#3481ed" stroke-width="1" opacity="0.2"/>
  <path d="M-100,500 Q300,800 600,500 T1300,500" fill="none" stroke="#00ff7b" stroke-width="1" opacity="0.2"/>
  
  <!-- Glowing Elements -->
  <circle cx="300" cy="700" r="5" fill="#00ff7b" filter="url(#glow)" opacity="0.7"/>
  <circle cx="900" cy="200" r="5" fill="#3481ed" filter="url(#glow)" opacity="0.7"/>
  <circle cx="100" cy="400" r="5" fill="#00ff7b" filter="url(#glow)" opacity="0.5"/>
  <circle cx="1100" cy="500" r="5" fill="#3481ed" filter="url(#glow)" opacity="0.5"/>
  <circle cx="700" cy="100" r="5" fill="#00ff7b" filter="url(#glow)" opacity="0.6"/>
  <circle cx="500" cy="700" r="5" fill="#3481ed" filter="url(#glow)" opacity="0.6"/>
</svg>
