<svg xmlns="http://www.w3.org/2000/svg" width="1280" height="720" viewBox="0 0 1280 720">
  <defs>
    <linearGradient id="grad" x1="0%" y1="0%" x2="100%" y2="100%">
      <stop offset="0%" stop-color="#121b2e" />
      <stop offset="50%" stop-color="#3481ed" />
      <stop offset="100%" stop-color="#00ff7b" />
    </linearGradient>
    <radialGradient id="glow" cx="50%" cy="50%" r="50%" fx="50%" fy="50%">
      <stop offset="0%" stop-color="#00ff7b" stop-opacity="0.3" />
      <stop offset="100%" stop-color="#121b2e" stop-opacity="0" />
    </radialGradient>
  </defs>
  <rect width="1280" height="720" fill="#121b2e" />
  <rect width="1280" height="720" fill="url(#grad)" opacity="0.4" />
  
  <!-- Background elements -->
  <circle cx="640" cy="360" r="300" fill="url(#glow)" />
  <circle cx="200" cy="200" r="100" fill="#3481ed" opacity="0.1" />
  <circle cx="1100" cy="500" r="150" fill="#00ff7b" opacity="0.1" />
  
  <!-- Grid lines -->
  <g stroke="#ffffff" stroke-width="1" opacity="0.1">
    <line x1="0" y1="120" x2="1280" y2="120" />
    <line x1="0" y1="240" x2="1280" y2="240" />
    <line x1="0" y1="360" x2="1280" y2="360" />
    <line x1="0" y1="480" x2="1280" y2="480" />
    <line x1="0" y1="600" x2="1280" y2="600" />
    
    <line x1="213" y1="0" x2="213" y2="720" />
    <line x1="426" y1="0" x2="426" y2="720" />
    <line x1="640" y1="0" x2="640" y2="720" />
    <line x1="853" y1="0" x2="853" y2="720" />
    <line x1="1066" y1="0" x2="1066" y2="720" />
  </g>
  
  <!-- Placeholder video text -->
  <text x="640" y="360" font-family="Arial" font-size="40" font-weight="bold" text-anchor="middle" fill="white">STATmize Hero Video</text>
  <text x="640" y="420" font-family="Arial" font-size="20" text-anchor="middle" fill="white">Smarter Sports. Smarter Moves.</text>
</svg>
